<svg xmlns="http://www.w3.org/2000/svg" viewBox="-24 -1621 4901 1660">
  <title>Arbit</title>
  <path fill="#11261F" d="M743 -1194 525 -641Q563 -640 606 -640Q648 -639 719 -639Q801 -639 847 -640Q893 -640 933 -641ZM688 -1434H932Q1076 -1012 1206 -658Q1337 -305 1389 -188Q1411 -135 1444 -112Q1478 -90 1534 -90H1556V0Q1429 -6 1361 -8Q1293 -10 1247 -10Q1203 -10 1133 -8Q1063 -6 930 0V-90H948Q1027 -90 1055 -108Q1083 -126 1083 -172Q1083 -186 1080 -205Q1076 -224 1065 -258L983 -500Q926 -501 833 -502Q740 -504 717 -504Q674 -504 544 -501Q497 -500 471 -500L467 -490Q369 -251 369 -188Q369 -136 398 -113Q428 -90 496 -90H514V0Q400 -6 337 -8Q274 -10 233 -10Q199 -10 144 -8Q88 -6 -18 0V-90Q54 -90 97 -115Q140 -140 170 -199Q213 -277 364 -635Q515 -993 688 -1434Z M1938 -1030Q1931 -936 1927 -869Q1923 -802 1922 -752Q2011 -901 2075 -956Q2139 -1012 2215 -1012Q2268 -1012 2307 -973Q2346 -934 2346 -879Q2346 -828 2321 -798Q2297 -768 2256 -768Q2233 -768 2192 -784Q2151 -801 2127 -801Q2082 -801 2037 -767Q1992 -733 1932 -653Q1932 -621 1931 -555Q1930 -489 1930 -455V-344Q1930 -171 1961 -126Q1992 -82 2082 -82Q2088 -82 2101 -83Q2115 -84 2123 -84V0H2120Q1897 -14 1830 -14Q1777 -14 1561 -1H1541V-86H1568Q1643 -86 1670 -123Q1697 -160 1697 -299V-420V-637Q1697 -787 1678 -822Q1660 -858 1609 -858Q1603 -858 1587 -856Q1571 -853 1561 -852L1553 -932Q1648 -947 1743 -971Q1838 -995 1938 -1030Z M2747 -154Q2789 -130 2831 -118Q2873 -106 2917 -106Q3060 -106 3142 -202Q3224 -298 3224 -465Q3224 -642 3145 -747Q3067 -852 2935 -852Q2887 -852 2837 -836Q2788 -820 2735 -787Q2734 -732 2733 -675Q2733 -618 2733 -528Q2733 -343 2736 -264Q2739 -184 2747 -154ZM2747 -1550Q2739 -1365 2735 -1202Q2731 -1039 2731 -893Q2818 -956 2895 -986Q2972 -1016 3048 -1016Q3228 -1016 3352 -878Q3476 -740 3476 -537Q3476 -291 3304 -134Q3133 23 2855 23Q2760 23 2668 9Q2576 -5 2489 -33Q2495 -371 2498 -589Q2501 -807 2501 -905V-1032Q2501 -1259 2481 -1322Q2461 -1386 2405 -1386Q2401 -1386 2390 -1384Q2380 -1383 2362 -1381L2354 -1464Q2451 -1478 2548 -1499Q2646 -1520 2747 -1550Z M3954 -1024Q3948 -808 3944 -647Q3941 -486 3941 -383V-266Q3941 -149 3964 -116Q3988 -84 4054 -84Q4059 -84 4069 -85Q4080 -86 4087 -86V0Q3995 -6 3926 -9Q3857 -12 3812 -12Q3774 -12 3709 -9Q3645 -6 3556 0V-86H3577Q3705 -86 3706 -322Q3706 -360 3706 -381L3708 -594V-682Q3708 -794 3690 -826Q3672 -858 3620 -858Q3613 -858 3588 -856Q3577 -855 3571 -854L3556 -934Q3662 -948 3760 -970Q3858 -992 3954 -1024Z M4457 -1196 4545 -1171Q4539 -1115 4534 -1064Q4530 -1014 4529 -969Q4660 -969 4724 -971Q4788 -973 4842 -977L4816 -840Q4753 -845 4680 -848Q4608 -850 4529 -849Q4526 -717 4524 -624Q4523 -530 4523 -477Q4523 -258 4554 -192Q4586 -125 4666 -125Q4698 -125 4739 -138Q4780 -151 4832 -178L4871 -94Q4761 -32 4675 0Q4589 33 4533 33Q4405 33 4344 -48Q4283 -128 4283 -297Q4283 -330 4288 -514Q4294 -698 4294 -850Q4292 -850 4246 -848Q4201 -846 4140 -844V-940Q4256 -957 4334 -1020Q4413 -1084 4457 -1196Z"/>
  <circle fill="#2F7C4F" cx="3813" cy="-1424" r="190"/>
</svg>
