<svg xmlns="http://www.w3.org/2000/svg" viewBox="0 0 64 64">
  <rect width="64" height="64" rx="13" fill="#0A2D22"/>
  <path fill="#B9F397" transform="translate(9.5 53) scale(0.0293)" d="M743 -1194 525 -641Q563 -640 606 -640Q648 -639 719 -639Q801 -639 847 -640Q893 -640 933 -641ZM688 -1434H932Q1076 -1012 1206 -658Q1337 -305 1389 -188Q1411 -135 1444 -112Q1478 -90 1534 -90H1556V0Q1429 -6 1361 -8Q1293 -10 1247 -10Q1203 -10 1133 -8Q1063 -6 930 0V-90H948Q1027 -90 1055 -108Q1083 -126 1083 -172Q1083 -186 1080 -205Q1076 -224 1065 -258L983 -500Q926 -501 833 -502Q740 -504 717 -504Q674 -504 544 -501Q497 -500 471 -500L467 -490Q369 -251 369 -188Q369 -136 398 -113Q428 -90 496 -90H514V0Q400 -6 337 -8Q274 -10 233 -10Q199 -10 144 -8Q88 -6 -18 0V-90Q54 -90 97 -115Q140 -140 170 -199Q213 -277 364 -635Q515 -993 688 -1434Z"/>
</svg>
